<mxfile host="app.diagrams.net" modified="2024-05-19T11:33:41.030Z" agent="Mozilla/5.0 (Windows NT 10.0; Win64; x64) AppleWebKit/537.36 (KHTML, like Gecko) Chrome/122.0.0.0 YaBrowser/24.4.0.0 Safari/537.36" etag="TQ-G3i9vx4SYtre3mHTH" version="24.4.4" type="github">
  <diagram name="Page-1" id="e7e014a7-5840-1c2e-5031-d8a46d1fe8dd">
    <mxGraphModel dx="557" dy="315" grid="1" gridSize="10" guides="1" tooltips="1" connect="1" arrows="1" fold="1" page="1" pageScale="1" pageWidth="1169" pageHeight="826" background="none" math="0" shadow="0">
      <root>
        <mxCell id="0" />
        <mxCell id="1" parent="0" />
        <mxCell id="3" value="Банк" style="swimlane;whiteSpace=wrap" parent="1" vertex="1">
          <mxGeometry x="445" y="180" width="325" height="920" as="geometry" />
        </mxCell>
        <mxCell id="6WPj77ubRBhvYXVLYecv-57" value="Принятие оплаты" style="rounded=1;whiteSpace=wrap;html=1;arcSize=40;" vertex="1" parent="3">
          <mxGeometry x="95" y="290" width="120" height="40" as="geometry" />
        </mxCell>
        <mxCell id="2" value="Приложение" style="swimlane;whiteSpace=wrap" parent="1" vertex="1">
          <mxGeometry x="20" y="180" width="425" height="920" as="geometry" />
        </mxCell>
        <mxCell id="5" value="" style="ellipse;shape=startState;fillColor=#000000;strokeColor=#000000;" parent="2" vertex="1">
          <mxGeometry x="205" y="45" width="30" height="30" as="geometry" />
        </mxCell>
        <mxCell id="6" value="" style="edgeStyle=elbowEdgeStyle;elbow=horizontal;verticalAlign=bottom;endArrow=open;endSize=8;strokeColor=#000000;endFill=1;rounded=0;exitX=0.477;exitY=0.87;exitDx=0;exitDy=0;exitPerimeter=0;" parent="2" source="5" edge="1">
          <mxGeometry x="100" y="40" as="geometry">
            <mxPoint x="219.5" y="97" as="targetPoint" />
            <mxPoint x="219.5" y="87" as="sourcePoint" />
          </mxGeometry>
        </mxCell>
        <mxCell id="6WPj77ubRBhvYXVLYecv-46" style="edgeStyle=orthogonalEdgeStyle;rounded=0;orthogonalLoop=1;jettySize=auto;html=1;endArrow=open;endFill=0;" edge="1" parent="2" source="6WPj77ubRBhvYXVLYecv-44">
          <mxGeometry relative="1" as="geometry">
            <mxPoint x="220" y="147" as="targetPoint" />
          </mxGeometry>
        </mxCell>
        <mxCell id="6WPj77ubRBhvYXVLYecv-44" value="Установление адреса доставки" style="rounded=1;whiteSpace=wrap;html=1;arcSize=40;" vertex="1" parent="2">
          <mxGeometry x="160" y="97" width="120" height="28" as="geometry" />
        </mxCell>
        <mxCell id="6WPj77ubRBhvYXVLYecv-49" value="Установление времени доставки" style="rounded=1;whiteSpace=wrap;html=1;arcSize=40;" vertex="1" parent="2">
          <mxGeometry x="160" y="147" width="120" height="28" as="geometry" />
        </mxCell>
        <mxCell id="6WPj77ubRBhvYXVLYecv-50" value="" style="edgeStyle=orthogonalEdgeStyle;html=1;verticalAlign=bottom;endArrow=open;endSize=8;rounded=0;" edge="1" parent="2">
          <mxGeometry relative="1" as="geometry">
            <mxPoint x="219.9" y="207" as="targetPoint" />
            <mxPoint x="219.9" y="175" as="sourcePoint" />
            <Array as="points">
              <mxPoint x="220.4" y="191" />
              <mxPoint x="219.4" y="191" />
            </Array>
          </mxGeometry>
        </mxCell>
        <mxCell id="6WPj77ubRBhvYXVLYecv-53" value="Оплата заказа?" style="rhombus;whiteSpace=wrap;html=1;" vertex="1" parent="2">
          <mxGeometry x="160" y="207" width="120" height="48" as="geometry" />
        </mxCell>
        <mxCell id="6WPj77ubRBhvYXVLYecv-55" value="no" style="edgeStyle=orthogonalEdgeStyle;html=1;align=left;verticalAlign=top;endArrow=open;endSize=8;strokeColor=#000000;rounded=0;exitX=0;exitY=0.5;exitDx=0;exitDy=0;entryX=0;entryY=0.5;entryDx=0;entryDy=0;" edge="1" source="6WPj77ubRBhvYXVLYecv-53" parent="2" target="6WPj77ubRBhvYXVLYecv-98">
          <mxGeometry x="-0.9536" y="-21" relative="1" as="geometry">
            <mxPoint x="50" y="810" as="targetPoint" />
            <mxPoint x="84.5" y="233" as="sourcePoint" />
            <Array as="points">
              <mxPoint x="40" y="230" />
              <mxPoint x="40" y="805" />
            </Array>
            <mxPoint as="offset" />
          </mxGeometry>
        </mxCell>
        <mxCell id="6WPj77ubRBhvYXVLYecv-59" value="Принятие данных для оплаты" style="rounded=1;whiteSpace=wrap;html=1;arcSize=40;" vertex="1" parent="2">
          <mxGeometry x="250" y="290" width="110" height="40" as="geometry" />
        </mxCell>
        <mxCell id="6WPj77ubRBhvYXVLYecv-54" value="yes" style="edgeStyle=orthogonalEdgeStyle;html=1;align=left;verticalAlign=bottom;endArrow=open;endSize=8;strokeColor=#000000;rounded=0;" edge="1" parent="2">
          <mxGeometry x="-0.773" y="4" relative="1" as="geometry">
            <mxPoint x="311.5" y="290" as="targetPoint" />
            <mxPoint x="285.5" y="231" as="sourcePoint" />
            <Array as="points">
              <mxPoint x="280" y="231" />
              <mxPoint x="312" y="231" />
              <mxPoint x="312" y="233" />
              <mxPoint x="312" y="233" />
            </Array>
            <mxPoint as="offset" />
          </mxGeometry>
        </mxCell>
        <mxCell id="6WPj77ubRBhvYXVLYecv-69" style="edgeStyle=orthogonalEdgeStyle;rounded=0;orthogonalLoop=1;jettySize=auto;html=1;entryX=0.5;entryY=1;entryDx=0;entryDy=0;endArrow=open;endFill=0;" edge="1" parent="2" source="6WPj77ubRBhvYXVLYecv-66" target="6WPj77ubRBhvYXVLYecv-53">
          <mxGeometry relative="1" as="geometry" />
        </mxCell>
        <mxCell id="6WPj77ubRBhvYXVLYecv-66" value="Оплата принята?" style="rhombus;whiteSpace=wrap;html=1;" vertex="1" parent="2">
          <mxGeometry x="160" y="347" width="120" height="48" as="geometry" />
        </mxCell>
        <mxCell id="6WPj77ubRBhvYXVLYecv-70" value="no" style="text;html=1;align=center;verticalAlign=middle;resizable=0;points=[];autosize=1;strokeColor=none;fillColor=none;" vertex="1" parent="2">
          <mxGeometry x="185.5" y="317" width="40" height="30" as="geometry" />
        </mxCell>
        <mxCell id="6WPj77ubRBhvYXVLYecv-84" style="edgeStyle=orthogonalEdgeStyle;rounded=0;orthogonalLoop=1;jettySize=auto;html=1;exitX=0.863;exitY=0.411;exitDx=0;exitDy=0;exitPerimeter=0;entryX=0.5;entryY=0;entryDx=0;entryDy=0;endArrow=open;endFill=0;" edge="1" parent="2" source="6WPj77ubRBhvYXVLYecv-72" target="6WPj77ubRBhvYXVLYecv-82">
          <mxGeometry relative="1" as="geometry">
            <mxPoint x="309.75" y="485" as="targetPoint" />
            <mxPoint x="309.7612359550562" y="435" as="sourcePoint" />
            <Array as="points">
              <mxPoint x="315" y="429" />
            </Array>
          </mxGeometry>
        </mxCell>
        <mxCell id="6WPj77ubRBhvYXVLYecv-72" value="" style="shape=line;html=1;strokeWidth=6;" vertex="1" parent="2">
          <mxGeometry x="110" y="425" width="232.5" height="10" as="geometry" />
        </mxCell>
        <mxCell id="6WPj77ubRBhvYXVLYecv-76" value="Выбор курьера" style="rounded=1;whiteSpace=wrap;html=1;arcSize=40;" vertex="1" parent="2">
          <mxGeometry x="100" y="455" width="120" height="20" as="geometry" />
        </mxCell>
        <mxCell id="6WPj77ubRBhvYXVLYecv-73" value="" style="edgeStyle=orthogonalEdgeStyle;html=1;verticalAlign=bottom;endArrow=open;endSize=8;rounded=0;exitX=0.2;exitY=0.654;exitDx=0;exitDy=0;exitPerimeter=0;" edge="1" source="6WPj77ubRBhvYXVLYecv-72" parent="2" target="6WPj77ubRBhvYXVLYecv-76">
          <mxGeometry relative="1" as="geometry">
            <mxPoint x="160" y="465" as="targetPoint" />
            <mxPoint x="159.86941176470586" y="467" as="sourcePoint" />
            <Array as="points">
              <mxPoint x="160" y="432" />
            </Array>
          </mxGeometry>
        </mxCell>
        <mxCell id="6WPj77ubRBhvYXVLYecv-78" value="Внесение заказа в базу активных заказов курьера" style="rounded=1;whiteSpace=wrap;html=1;arcSize=40;" vertex="1" parent="2">
          <mxGeometry x="85" y="495" width="150" height="40" as="geometry" />
        </mxCell>
        <mxCell id="6WPj77ubRBhvYXVLYecv-77" style="edgeStyle=orthogonalEdgeStyle;rounded=0;orthogonalLoop=1;jettySize=auto;html=1;endArrow=open;endFill=0;" edge="1" parent="2" source="6WPj77ubRBhvYXVLYecv-76" target="6WPj77ubRBhvYXVLYecv-78">
          <mxGeometry relative="1" as="geometry">
            <mxPoint x="160" y="490" as="targetPoint" />
            <Array as="points" />
          </mxGeometry>
        </mxCell>
        <mxCell id="6WPj77ubRBhvYXVLYecv-80" value="Построение маршрута курьера" style="rounded=1;whiteSpace=wrap;html=1;arcSize=40;" vertex="1" parent="2">
          <mxGeometry x="90" y="570" width="140" height="30" as="geometry" />
        </mxCell>
        <mxCell id="6WPj77ubRBhvYXVLYecv-79" style="edgeStyle=orthogonalEdgeStyle;rounded=0;orthogonalLoop=1;jettySize=auto;html=1;endArrow=open;endFill=0;entryX=0.5;entryY=0;entryDx=0;entryDy=0;" edge="1" parent="2" target="6WPj77ubRBhvYXVLYecv-80">
          <mxGeometry relative="1" as="geometry">
            <mxPoint x="160" y="555" as="targetPoint" />
            <mxPoint x="160" y="535" as="sourcePoint" />
          </mxGeometry>
        </mxCell>
        <mxCell id="6WPj77ubRBhvYXVLYecv-82" value="Выбор ближайшей точки для создания заказа (магазин/ресторан)" style="rounded=1;whiteSpace=wrap;html=1;arcSize=40;" vertex="1" parent="2">
          <mxGeometry x="235" y="470" width="160" height="60" as="geometry" />
        </mxCell>
        <mxCell id="6WPj77ubRBhvYXVLYecv-85" style="edgeStyle=orthogonalEdgeStyle;rounded=0;orthogonalLoop=1;jettySize=auto;html=1;exitX=0.5;exitY=1;exitDx=0;exitDy=0;entryX=0.475;entryY=0.419;entryDx=0;entryDy=0;entryPerimeter=0;endArrow=open;endFill=0;" edge="1" parent="2" source="6WPj77ubRBhvYXVLYecv-66" target="6WPj77ubRBhvYXVLYecv-72">
          <mxGeometry relative="1" as="geometry" />
        </mxCell>
        <mxCell id="6WPj77ubRBhvYXVLYecv-87" value="yes" style="text;strokeColor=none;fillColor=none;align=left;verticalAlign=middle;spacingTop=-1;spacingLeft=4;spacingRight=4;rotatable=0;labelPosition=right;points=[];portConstraint=eastwest;" vertex="1" parent="2">
          <mxGeometry x="200" y="405" width="20" height="14" as="geometry" />
        </mxCell>
        <mxCell id="6WPj77ubRBhvYXVLYecv-90" value="" style="shape=line;html=1;strokeWidth=6;" vertex="1" parent="2">
          <mxGeometry x="110" y="660" width="240" height="10" as="geometry" />
        </mxCell>
        <mxCell id="6WPj77ubRBhvYXVLYecv-89" value="Передача данных о заказе" style="rounded=1;whiteSpace=wrap;html=1;arcSize=40;" vertex="1" parent="2">
          <mxGeometry x="255" y="565" width="120" height="40" as="geometry" />
        </mxCell>
        <mxCell id="6WPj77ubRBhvYXVLYecv-88" style="edgeStyle=orthogonalEdgeStyle;rounded=0;orthogonalLoop=1;jettySize=auto;html=1;endArrow=open;endFill=0;" edge="1" parent="2" source="6WPj77ubRBhvYXVLYecv-82" target="6WPj77ubRBhvYXVLYecv-89">
          <mxGeometry relative="1" as="geometry">
            <mxPoint x="330" y="555" as="targetPoint" />
            <Array as="points">
              <mxPoint x="315" y="540" />
              <mxPoint x="315" y="540" />
            </Array>
          </mxGeometry>
        </mxCell>
        <mxCell id="6WPj77ubRBhvYXVLYecv-92" style="edgeStyle=orthogonalEdgeStyle;rounded=0;orthogonalLoop=1;jettySize=auto;html=1;endArrow=open;endFill=0;entryX=0.854;entryY=0.261;entryDx=0;entryDy=0;entryPerimeter=0;" edge="1" parent="2" source="6WPj77ubRBhvYXVLYecv-89" target="6WPj77ubRBhvYXVLYecv-90">
          <mxGeometry relative="1" as="geometry">
            <mxPoint x="315" y="605" as="targetPoint" />
          </mxGeometry>
        </mxCell>
        <mxCell id="6WPj77ubRBhvYXVLYecv-93" style="edgeStyle=orthogonalEdgeStyle;rounded=0;orthogonalLoop=1;jettySize=auto;html=1;endArrow=open;endFill=0;entryX=0.206;entryY=0.33;entryDx=0;entryDy=0;entryPerimeter=0;exitX=0.491;exitY=0.994;exitDx=0;exitDy=0;exitPerimeter=0;" edge="1" parent="2" source="6WPj77ubRBhvYXVLYecv-80" target="6WPj77ubRBhvYXVLYecv-90">
          <mxGeometry relative="1" as="geometry">
            <mxPoint x="160" y="585" as="sourcePoint" />
            <mxPoint x="160" y="605" as="targetPoint" />
          </mxGeometry>
        </mxCell>
        <mxCell id="6WPj77ubRBhvYXVLYecv-99" style="edgeStyle=orthogonalEdgeStyle;rounded=0;orthogonalLoop=1;jettySize=auto;html=1;entryX=0.5;entryY=0;entryDx=0;entryDy=0;endArrow=open;endFill=0;" edge="1" parent="2" source="6WPj77ubRBhvYXVLYecv-97" target="6WPj77ubRBhvYXVLYecv-98">
          <mxGeometry relative="1" as="geometry" />
        </mxCell>
        <mxCell id="6WPj77ubRBhvYXVLYecv-97" value="Статус заказа: оформлен" style="rounded=1;whiteSpace=wrap;html=1;arcSize=40;" vertex="1" parent="2">
          <mxGeometry x="150" y="710" width="160" height="40" as="geometry" />
        </mxCell>
        <mxCell id="6WPj77ubRBhvYXVLYecv-94" style="edgeStyle=orthogonalEdgeStyle;rounded=0;orthogonalLoop=1;jettySize=auto;html=1;exitX=0.497;exitY=0.437;exitDx=0;exitDy=0;exitPerimeter=0;endArrow=open;endFill=0;" edge="1" parent="2" source="6WPj77ubRBhvYXVLYecv-90" target="6WPj77ubRBhvYXVLYecv-97">
          <mxGeometry relative="1" as="geometry">
            <mxPoint x="229" y="635" as="targetPoint" />
          </mxGeometry>
        </mxCell>
        <mxCell id="6WPj77ubRBhvYXVLYecv-98" value="" style="ellipse;html=1;shape=endState;fillColor=#000000;" vertex="1" parent="2">
          <mxGeometry x="215" y="790" width="30" height="30" as="geometry" />
        </mxCell>
        <mxCell id="6WPj77ubRBhvYXVLYecv-65" style="edgeStyle=orthogonalEdgeStyle;rounded=0;orthogonalLoop=1;jettySize=auto;html=1;entryX=0;entryY=0.5;entryDx=0;entryDy=0;endArrow=open;endFill=0;" edge="1" parent="1" source="6WPj77ubRBhvYXVLYecv-59" target="6WPj77ubRBhvYXVLYecv-57">
          <mxGeometry relative="1" as="geometry" />
        </mxCell>
        <mxCell id="6WPj77ubRBhvYXVLYecv-58" value="" style="edgeStyle=orthogonalEdgeStyle;html=1;verticalAlign=bottom;endArrow=open;endSize=8;rounded=0;entryX=1;entryY=0.5;entryDx=0;entryDy=0;" edge="1" source="6WPj77ubRBhvYXVLYecv-57" parent="1" target="6WPj77ubRBhvYXVLYecv-66">
          <mxGeometry relative="1" as="geometry">
            <mxPoint x="585.5" y="492" as="targetPoint" />
            <Array as="points">
              <mxPoint x="600" y="494" />
            </Array>
          </mxGeometry>
        </mxCell>
      </root>
    </mxGraphModel>
  </diagram>
</mxfile>
